<svg width="61" height="61" viewBox="0 0 61 61" fill="none" xmlns="http://www.w3.org/2000/svg">
<path d="M32.6143 60.7656C38.4896 60.3578 44.119 58.2411 48.8134 54.6746C53.5078 51.1082 57.0636 46.2466 59.0456 40.685C59.8753 38.3514 60.4184 35.9252 60.6629 33.4599C60.8605 31.4043 60.8463 29.3338 60.6206 27.2812C60.3233 24.3029 59.5754 21.3874 58.4026 18.635C55.5438 11.9439 50.401 6.49354 43.8969 3.26173C40.8249 1.73005 37.5096 0.748588 34.1007 0.361632C26.1557 -0.618842 18.1469 1.59697 11.8272 6.52412C5.50741 11.4513 1.39139 18.6885 0.379925 26.6518C0.138889 28.517 0.0782794 30.4012 0.198941 32.2782C0.379823 35.8338 1.20584 39.3265 2.63645 42.5849C4.59547 47.0567 7.59347 50.9933 11.3798 54.0655C15.1662 57.1377 19.6309 59.2563 24.4007 60.2443C25.7215 60.5285 27.0636 60.7016 28.4132 60.7617C28.598 60.7617 28.8521 60.7 28.906 61.0012H32.1753C32.2061 60.7115 32.4449 60.7772 32.6143 60.7656ZM29.9804 58.0161C22.7577 57.8983 15.8725 54.9299 10.8179 49.7547C5.7633 44.5794 2.94679 37.6146 2.97916 30.3705C3.07158 15.1479 15.4863 2.84081 30.5888 2.9528C34.2029 2.97783 37.7765 3.71839 41.1044 5.13197C44.4324 6.54556 47.4492 8.60433 49.9817 11.1901C52.5142 13.7759 54.5125 16.8379 55.862 20.2001C57.2115 23.5624 57.8856 27.1589 57.8455 30.7831C57.8055 34.4073 57.0521 37.9879 55.6286 41.3193C54.2051 44.6508 52.1396 47.6675 49.5506 50.1964C46.9615 52.7253 43.8999 54.7165 40.5416 56.0558C37.1832 57.395 33.5941 58.056 29.9804 58.0007V58.0161Z" fill="#CDA240"/>
<path d="M51.056 52.9654C58.8537 45.6012 62.0421 36.4955 60.5711 25.8798C59.6771 19.2101 56.4872 13.0633 51.5528 8.50235C44.4443 1.76763 35.9458 -0.950977 26.2805 0.292475C19.145 1.15636 12.5819 4.64124 7.85866 10.074C1.40485 17.3224 -1.06346 25.8528 0.415219 35.4103C1.6436 43.3538 5.60984 49.795 11.9674 54.7186C16.1039 57.9425 21.0214 60.0044 26.215 60.6926C27.1123 60.8162 28.0172 60.8972 28.9105 60.9977C28.8566 60.6964 28.6025 60.766 28.4176 60.7582C27.0681 60.6981 25.726 60.525 24.4052 60.2408C19.6351 59.2538 15.1698 57.136 11.3828 54.0645C7.59577 50.9929 4.59697 47.0568 2.63708 42.5853C1.20648 39.3269 0.380461 35.8342 0.199579 32.2785C0.0789175 30.4016 0.139527 28.5174 0.380563 26.6521C1.39686 18.691 5.51412 11.4569 11.8327 6.53073C18.1512 1.60454 26.1572 -0.613258 34.1013 0.361985C37.5103 0.748942 40.8256 1.73041 43.8975 3.26209C50.4037 6.49676 55.5467 11.9516 58.4032 18.6469C59.5749 21.3957 60.3228 24.3072 60.6212 27.2816C60.847 29.3342 60.8612 31.4047 60.6636 33.4602C60.4196 35.9281 59.8765 38.357 59.0463 40.6931C57.0642 46.2547 53.5084 51.1162 48.814 54.6827C44.1196 58.2492 38.4903 60.3658 32.6149 60.7737C32.4455 60.7737 32.2068 60.7196 32.1759 61.0092C32.9885 60.9127 33.8048 60.8239 34.6173 60.7158C40.7792 59.9507 46.5375 57.2358 51.056 52.9654Z" fill="#CDA240"/>
<path d="M25.1175 27.1462C26.579 27.5215 28.0767 27.7364 29.5844 27.7873C30.266 27.8182 30.2814 27.8529 29.9309 28.4051C29.1608 29.6254 28.3907 30.8457 27.6205 32.066L25.1368 36.0358C25.3909 36.2134 25.672 36.1864 25.9069 36.2868C25.983 36.3273 26.0669 36.351 26.1529 36.3561C26.2389 36.3613 26.3249 36.3478 26.4053 36.3167C26.4856 36.2856 26.5584 36.2375 26.6186 36.1757C26.6787 36.1139 26.725 36.0398 26.7541 35.9585C27.2354 35.1205 27.7707 34.3173 28.2944 33.4987L36.6389 20.1914C36.8276 19.8902 37.024 19.562 37.4591 19.6739C37.8942 19.7859 37.9597 20.1644 37.9674 20.5505C38.0367 23.5201 38.2408 26.482 38.2138 29.4555C38.2138 29.9035 38.0791 30 37.6555 30.0116C35.811 30.0579 33.9703 30.1429 32.1297 30.2124C32.0343 30.2024 31.938 30.2187 31.8512 30.2596C31.7643 30.3004 31.6902 30.3642 31.6368 30.4441C30.7511 31.8729 29.8578 33.2978 28.899 34.8348C29.4843 34.8 29.954 34.7691 30.4392 34.7498C32.9461 34.661 35.4452 34.5876 37.9635 34.4718C38.4102 34.4486 38.5219 34.5374 38.5296 34.9854C38.5797 37.005 38.6682 39.0247 38.7452 41.0405C38.7452 41.3378 39.9005 42.199 40.1893 42.1333C40.2375 42.1132 40.2809 42.0829 40.3163 42.0445C41.3402 41.3004 42.2688 40.4327 43.0811 39.461C43.7828 38.637 44.1643 37.5866 44.1555 36.503C44.0515 33.3403 43.9014 30.1815 43.7704 27.0227C43.628 23.2344 43.5009 19.4422 43.3623 15.6501C43.2968 13.8428 43.2275 12.0395 43.1582 10.2129C41.8566 10.4678 40.8285 10.881 40.0776 12.1167C37.9404 15.7273 35.657 19.2492 33.4312 22.8057C33.3003 23.0181 33.1771 23.1919 32.8806 23.2267C30.9783 23.3348 29.0876 23.2962 27.2585 22.6938C24.8249 21.8867 23.4078 19.755 23.7544 17.4689C23.9139 16.3335 24.4687 15.2912 25.3207 14.5266C26.1727 13.7619 27.267 13.3241 28.4099 13.2906C29.457 13.2451 30.4891 13.5523 31.3419 14.1632C32.1946 14.7742 32.819 15.6538 33.1155 16.6619C33.1617 16.8125 33.2233 16.8704 33.3619 16.8665C33.5737 16.8665 33.7855 16.8665 33.9935 16.8665C34.3785 16.8897 34.4979 16.7275 34.4863 16.3375C34.4594 15.2485 34.4863 14.1595 34.4863 13.0705C34.4863 12.0395 34.702 12.2055 33.5545 12.1707C33.2272 12.1707 33.1232 12.2596 33.1424 12.5878C33.1694 12.9971 33.2772 13.4837 32.8074 13.7154C32.3376 13.9471 32.0642 13.5416 31.7331 13.3292C31.6907 13.3022 31.6522 13.2636 31.606 13.2327C30.7289 12.5932 29.7233 12.1531 28.6592 11.943C27.5952 11.7329 26.4983 11.7579 25.4449 12.0163C20.9395 13.0512 18.4327 17.1407 19.4878 21.6704C20.1925 24.6941 22.2103 26.3739 25.1175 27.1462Z" fill="#CDA240"/>
<path d="M45.1332 25.7944C45.1332 27.1692 45.1332 28.4976 45.1332 29.8376C45.0991 31.1564 45.2206 32.4747 45.4952 33.7649C45.8869 35.5289 45.664 37.3743 44.8637 38.9936C43.951 40.9514 42.3299 42.2335 40.5894 43.3958C40.464 43.4991 40.3068 43.5555 40.1446 43.5555C39.9824 43.5555 39.8252 43.4991 39.6998 43.3958C36.5926 41.4098 33.2482 39.8243 29.7457 38.6769C25.7256 37.3408 21.6592 36.3831 17.3695 36.6418C16.0481 36.6779 14.7591 37.06 13.6305 37.7501C10.1032 40.0285 10.1648 45.0872 13.7729 47.0953C15.8831 48.2731 18.3592 48.0337 19.8532 46.4774C20.9684 45.2348 21.9279 43.8602 22.7105 42.3841C22.7798 42.2644 22.876 42.1601 22.7105 42.0288C22.601 41.9404 22.4739 41.8765 22.3377 41.8416C22.2015 41.8067 22.0594 41.8015 21.9211 41.8264C21.7827 41.8513 21.6513 41.9057 21.5357 41.9859C21.4201 42.0662 21.323 42.1703 21.251 42.2914C20.4809 43.504 19.7647 44.7629 18.648 45.7128C18.2433 46.0499 17.76 46.2786 17.2432 46.3775C16.7265 46.4764 16.1931 46.4423 15.6931 46.2784C15.1931 46.1144 14.7427 45.826 14.384 45.4401C14.0253 45.0542 13.77 44.5834 13.642 44.0716C13.153 41.9207 14.493 40.1714 16.7457 40.013C18.3848 39.9504 20.0249 40.1115 21.6207 40.4919C25.0864 41.1986 28.2555 42.7085 31.2475 44.5466C32.5452 45.3383 33.6311 46.4002 34.8402 47.2961C35.7066 47.941 36.5576 48.1843 37.6397 47.4776C40.7604 45.47 43.5454 42.9807 45.8918 40.1019C47.3013 38.4198 48.1651 36.3464 48.3678 34.1588C48.6258 31.0694 47.5284 28.4435 45.5799 26.1188C45.5307 26.0377 45.4658 25.9672 45.3891 25.9115C45.3124 25.8558 45.2254 25.816 45.1332 25.7944Z" fill="#CDA240"/>
<path d="M16.648 33.4215C18.9315 35.1978 21.5384 35.2094 24.2185 34.9661C24.4419 34.9661 24.4996 34.7846 24.6036 34.6418C25.4097 33.3391 26.2119 32.0441 27.0103 30.7569C27.0719 30.6565 27.1836 30.5716 27.1104 30.3939L25.4392 30.4712C24.3219 30.5928 23.1948 30.5928 22.0775 30.4712C21.3374 30.3399 20.6355 30.0456 20.0225 29.6095C19.4094 29.1735 18.9004 28.6065 18.5321 27.9495C18.1638 27.2924 17.9454 26.5616 17.8926 25.8098C17.8398 25.0579 17.954 24.3036 18.2268 23.6013C18.3865 23.3262 18.4665 23.012 18.4578 22.6938C18.2923 21.8713 18.1074 21.0526 17.9149 20.1528C17.5298 20.3961 17.2333 20.5931 16.933 20.8016C12.6972 23.7403 12.5624 30.2472 16.648 33.4215Z" fill="#CDA240"/>
<path d="M46.0575 46.4583H45.3759C44.7098 46.4583 44.4941 46.2497 44.471 45.5855C44.484 44.9658 44.448 44.346 44.3632 43.7319C42.7498 45.2766 40.8976 46.4776 39.0762 47.8291H46.0075C46.8046 47.8291 46.7083 47.9257 46.7121 47.1379C46.7353 46.4583 46.7276 46.4583 46.0575 46.4583Z" fill="#CDA240"/>
</svg>
