<svg width="223" height="55" viewBox="0 0 223 55" fill="none" xmlns="http://www.w3.org/2000/svg">
<path d="M29.0761 54.1758C34.3141 53.8122 39.3329 51.9251 43.5181 48.7455C47.7033 45.5659 50.8734 41.2317 52.6404 36.2733C53.3801 34.1928 53.8642 32.0298 54.0823 29.8319C54.2584 27.9993 54.2458 26.1534 54.0445 24.3234C53.7795 21.6682 53.1127 19.0689 52.0671 16.615C49.5184 10.6498 44.9335 5.79057 39.1348 2.90932C36.3961 1.54378 33.4404 0.668771 30.4012 0.323787C23.318 -0.550335 16.1779 1.42513 10.5437 5.81783C4.90944 10.2105 1.23988 16.6627 0.338131 23.7622C0.123241 25.4252 0.0692052 27.105 0.176779 28.7784C0.338041 31.9483 1.07446 35.0622 2.34989 37.9672C4.09642 41.9539 6.76923 45.4635 10.1449 48.2024C13.5205 50.9414 17.501 52.8302 21.7534 53.711C22.9309 53.9644 24.1275 54.1187 25.3306 54.1723C25.4954 54.1723 25.722 54.1172 25.77 54.3858H28.6847C28.7122 54.1276 28.925 54.1861 29.0761 54.1758ZM26.7279 51.7245C20.2886 51.6195 14.1503 48.9731 9.64392 44.3592C5.13758 39.7453 2.62657 33.5359 2.65543 27.0776C2.73782 13.5062 13.8059 2.53405 27.2703 2.63389C30.4923 2.65621 33.6783 3.31644 36.6452 4.57669C39.6122 5.83694 42.3018 7.67241 44.5596 9.97773C46.8174 12.283 48.599 15.0128 49.8021 18.0104C51.0052 21.008 51.6062 24.2143 51.5705 27.4454C51.5347 30.6765 50.8631 33.8687 49.594 36.8388C48.3249 39.8089 46.4835 42.4984 44.1752 44.753C41.867 47.0076 39.1376 48.7828 36.1435 49.9768C33.1494 51.1708 29.9496 51.76 26.7279 51.7107V51.7245Z" fill="#988358"/>
<path d="M45.518 47.2203C52.4699 40.6549 55.3125 32.5368 54.001 23.0726C53.204 17.1264 50.36 11.6463 45.9609 7.5801C39.6235 1.57589 32.0468 -0.847825 23.4299 0.260751C17.0684 1.03093 11.2171 4.1378 7.00623 8.98132C1.25247 15.4434 -0.948104 23.0485 0.370181 31.5694C1.46532 38.6512 5.00134 44.3938 10.6693 48.7833C14.3571 51.6575 18.7412 53.4957 23.3715 54.1093C24.1714 54.2195 24.9782 54.2918 25.7746 54.3813C25.7266 54.1127 25.5 54.1747 25.3352 54.1678C24.1321 54.1142 22.9355 53.9599 21.758 53.7065C17.5053 52.8266 13.5244 50.9385 10.1481 48.2001C6.77186 45.4617 4.09834 41.9526 2.35104 37.9661C1.07561 35.0611 0.339193 31.9473 0.177931 28.7773C0.0703573 27.104 0.124393 25.4241 0.339283 23.7612C1.24534 16.6636 4.91601 10.2142 10.5492 5.82235C16.1823 1.43049 23.32 -0.546738 30.4024 0.322721C33.4416 0.667704 36.3972 1.54271 39.136 2.90825C44.9364 5.79206 49.5216 10.6552 52.0682 16.6243C53.1129 19.0749 53.7796 21.6706 54.0457 24.3223C54.2469 26.1523 54.2596 27.9982 54.0834 29.8308C53.8659 32.031 53.3818 34.1965 52.6416 36.2791C50.8745 41.2375 47.7044 45.5717 43.5192 48.7513C39.334 51.9309 34.3153 53.818 29.0772 54.1816C28.9262 54.1816 28.7133 54.1334 28.6858 54.3916C29.4102 54.3055 30.138 54.2263 30.8624 54.13C36.3559 53.4479 41.4896 51.0275 45.518 47.2203Z" fill="#988358"/>
<path d="M22.393 24.2011C23.6959 24.5356 25.0312 24.7272 26.3753 24.7726C26.983 24.8001 26.9967 24.8311 26.6843 25.3234C25.9977 26.4114 25.3111 27.4993 24.6245 28.5872L22.4102 32.1264C22.6367 32.2847 22.8873 32.2606 23.0968 32.3502C23.1646 32.3863 23.2394 32.4074 23.316 32.412C23.3927 32.4166 23.4694 32.4046 23.5411 32.3768C23.6127 32.3491 23.6775 32.3062 23.7312 32.2511C23.7848 32.196 23.8261 32.13 23.852 32.0575C24.2812 31.3104 24.7584 30.5943 25.2252 29.8645L32.6646 18.0006C32.8329 17.7321 33.0079 17.4395 33.3959 17.5393C33.7838 17.6391 33.8422 17.9765 33.849 18.3208C33.9108 20.9683 34.0928 23.6089 34.0687 26.2599C34.0687 26.6592 33.9486 26.7453 33.571 26.7556C31.9265 26.7969 30.2855 26.8727 28.6446 26.9347C28.5595 26.9258 28.4736 26.9403 28.3962 26.9767C28.3188 27.0131 28.2527 27.07 28.2051 27.1412C27.4155 28.4151 26.6191 29.6854 25.7642 31.0557C26.2861 31.0247 26.7049 30.9971 27.1374 30.9799C29.3724 30.9007 31.6004 30.8353 33.8456 30.732C34.2438 30.7114 34.3434 30.7906 34.3503 31.1899C34.3949 32.9905 34.4738 34.7911 34.5425 36.5882C34.5425 36.8533 35.5724 37.6211 35.8299 37.5625C35.8729 37.5446 35.9116 37.5176 35.9432 37.4833C36.856 36.82 37.6838 36.0464 38.4081 35.1801C39.0337 34.4454 39.3738 33.509 39.3659 32.5429C39.2732 29.7233 39.1393 26.9071 39.0226 24.0909C38.8956 20.7136 38.7823 17.3327 38.6587 13.9519C38.6004 12.3407 38.5386 10.7329 38.4768 9.10449C37.3164 9.33172 36.3998 9.70009 35.7303 10.8018C33.825 14.0208 31.7892 17.1606 29.8049 20.3314C29.6882 20.5208 29.5783 20.6757 29.314 20.7067C27.6181 20.8031 25.9325 20.7686 24.3018 20.2316C22.1321 19.512 20.8687 17.6116 21.1777 15.5735C21.3199 14.5612 21.8145 13.632 22.5741 12.9503C23.3337 12.2685 24.3093 11.8782 25.3282 11.8484C26.2617 11.8078 27.1819 12.0817 27.9422 12.6264C28.7024 13.171 29.2591 13.9552 29.5234 14.8539C29.5646 14.9882 29.6195 15.0398 29.7431 15.0364C29.9319 15.0364 30.1208 15.0364 30.3061 15.0364C30.6494 15.0571 30.7559 14.9125 30.7456 14.5647C30.7215 13.5939 30.7456 12.623 30.7456 11.6522C30.7456 10.7329 30.9378 10.881 29.9148 10.85C29.623 10.85 29.5303 10.9292 29.5474 11.2218C29.5715 11.5867 29.6676 12.0205 29.2488 12.2271C28.8299 12.4337 28.5862 12.0722 28.2909 11.8828C28.2532 11.8587 28.2189 11.8243 28.1777 11.7967C27.3957 11.2266 26.4991 10.8342 25.5505 10.6469C24.6019 10.4596 23.624 10.4819 22.6848 10.7123C18.6682 11.6349 16.4332 15.2808 17.3739 19.3192C18.0021 22.0149 19.8011 23.5125 22.393 24.2011Z" fill="#988358"/>
<path d="M40.2373 22.9951C40.2373 24.2207 40.2373 25.4051 40.2373 26.5997C40.2068 27.7755 40.3152 28.9507 40.56 30.101C40.9092 31.6737 40.7105 33.3189 39.9969 34.7625C39.1833 36.508 37.738 37.651 36.1863 38.6873C36.0745 38.7794 35.9344 38.8297 35.7898 38.8297C35.6451 38.8297 35.505 38.7794 35.3932 38.6873C32.6231 36.9167 29.6415 35.5032 26.5189 34.4802C22.9348 33.289 19.3095 32.4352 15.4851 32.6659C14.307 32.6981 13.1578 33.0387 12.1516 33.654C9.00695 35.6852 9.06188 40.1953 12.2786 41.9855C14.1599 43.0355 16.3674 42.8221 17.6994 41.4347C18.6936 40.3268 19.549 39.1013 20.2467 37.7853C20.3085 37.6786 20.3943 37.5856 20.2467 37.4686C20.1491 37.3897 20.0358 37.3328 19.9144 37.3017C19.7929 37.2706 19.6663 37.2659 19.5429 37.2881C19.4196 37.3103 19.3024 37.3588 19.1993 37.4303C19.0963 37.5019 19.0098 37.5947 18.9456 37.7027C18.259 38.7837 17.6204 39.9061 16.6248 40.753C16.2641 41.0535 15.8332 41.2574 15.3725 41.3456C14.9118 41.4337 14.4363 41.4033 13.9905 41.2572C13.5447 41.111 13.1432 40.8539 12.8234 40.5098C12.5036 40.1658 12.276 39.746 12.1619 39.2898C11.7259 37.3722 12.9206 35.8126 14.9289 35.6714C16.3903 35.6156 17.8524 35.7592 19.2752 36.0983C22.3649 36.7284 25.1903 38.0745 27.8577 39.7133C29.0147 40.419 29.9828 41.3658 31.0608 42.1645C31.8332 42.7395 32.5919 42.9564 33.5566 42.3263C36.3388 40.5364 38.8217 38.3172 40.9136 35.7506C42.1701 34.2511 42.9403 32.4025 43.121 30.4522C43.351 27.698 42.3726 25.3569 40.6355 23.2843C40.5916 23.212 40.5338 23.1492 40.4654 23.0995C40.397 23.0498 40.3195 23.0144 40.2373 22.9951Z" fill="#988358"/>
<path d="M14.8423 29.7952C16.8781 31.3789 19.2023 31.3892 21.5917 31.1723C21.7908 31.1723 21.8423 31.0105 21.935 30.8831C22.6536 29.7218 23.3688 28.5673 24.0806 27.4197C24.1356 27.3302 24.2351 27.2544 24.1699 27.0961L22.68 27.1649C21.6839 27.2734 20.679 27.2734 19.6829 27.1649C19.0231 27.0479 18.3973 26.7855 17.8508 26.3968C17.3042 26.008 16.8504 25.5025 16.5221 24.9168C16.1937 24.331 15.999 23.6795 15.9519 23.0091C15.9049 22.3388 16.0066 21.6664 16.2499 21.0402C16.3923 20.795 16.4636 20.5148 16.4559 20.2312C16.3082 19.4979 16.1435 18.768 15.9718 17.9658C15.6285 18.1827 15.3642 18.3583 15.0964 18.5442C11.32 21.1642 11.1999 26.9652 14.8423 29.7952Z" fill="#988358"/>
<path d="M41.061 41.4199H40.4534C39.8594 41.4199 39.6672 41.2339 39.6466 40.6418C39.6582 40.0893 39.6261 39.5367 39.5505 38.9893C38.112 40.3664 36.4607 41.4371 34.8369 42.6421H41.0164C41.727 42.6421 41.6412 42.7281 41.6446 42.0258C41.6652 41.4199 41.6584 41.4199 41.061 41.4199Z" fill="#988358"/>
<path d="M78.9411 37.417H62.582V38.6573H78.9411V37.417Z" fill="#988358"/>
<path d="M223 37.417H206.641V38.6573H223V37.417Z" fill="#988358"/>
<path d="M151.028 24.9462H143.626L142.212 28.4802H138.432L145.538 11.9736H149.184L156.315 28.4802H152.442L151.028 24.9462ZM149.877 22.043L147.349 15.7221L144.82 22.043H149.877Z" fill="#988358"/>
<path d="M172.603 11.9736V28.4802H168.914V21.7122H161.667V28.4802H157.979V11.9736H161.667V18.4813H168.914V11.9736H172.603Z" fill="#988358"/>
<path d="M177.972 28.2329C176.948 27.9561 175.986 27.4886 175.135 26.8548L176.39 23.9761C177.13 24.5252 177.955 24.9474 178.833 25.2255C179.736 25.5331 180.683 25.6923 181.636 25.6971C182.685 25.6971 183.459 25.5369 183.96 25.2163C184.188 25.0886 184.378 24.902 184.51 24.6758C184.643 24.4497 184.712 24.1922 184.711 23.9301C184.715 23.744 184.677 23.5594 184.601 23.3899C184.524 23.2203 184.411 23.0701 184.269 22.9501C183.931 22.6754 183.545 22.4676 183.13 22.3376C182.665 22.1825 182.038 22.01 181.248 21.8201C180.24 21.5781 179.248 21.2743 178.277 20.9105C177.501 20.6111 176.814 20.1165 176.283 19.4743C175.699 18.7215 175.405 17.7837 175.452 16.8314C175.443 15.9086 175.704 15.0033 176.204 14.2283C176.765 13.4078 177.552 12.7693 178.469 12.3908C179.642 11.9037 180.905 11.671 182.174 11.7079C183.18 11.7065 184.183 11.8331 185.157 12.0846C186.061 12.3065 186.923 12.6726 187.71 13.1687L186.571 16.0658C185.24 15.2434 183.713 14.7959 182.149 14.7703C181.117 14.7703 180.355 14.9429 179.862 15.2879C179.632 15.4334 179.443 15.6357 179.313 15.8753C179.183 16.115 179.117 16.384 179.12 16.6568C179.117 16.9294 179.198 17.1963 179.351 17.4218C179.503 17.6473 179.721 17.8206 179.975 17.9185C180.814 18.2787 181.688 18.5507 182.583 18.7301C183.595 18.9672 184.591 19.2668 185.566 19.6274C186.34 19.9221 187.026 20.4089 187.561 21.0422C188.116 21.6853 188.391 22.5735 188.391 23.6606C188.399 24.5778 188.134 25.4765 187.631 26.2423C187.06 27.0635 186.265 27.7017 185.34 28.0797C184.167 28.5647 182.905 28.7974 181.636 28.7627C180.395 28.7674 179.161 28.5889 177.972 28.2329Z" fill="#988358"/>
<path d="M201.425 24.946H194.02L192.609 28.4831H188.825L195.934 11.9766H199.578L206.711 28.4831H202.836L201.425 24.946ZM200.265 22.0428L197.736 15.7219L195.208 22.0428H200.265Z" fill="#988358"/>
<path d="M223.001 11.9736V28.4802H219.968L212.028 18.4568V28.4802H208.373V11.9736H211.427L219.367 21.997V11.9736H223.001Z" fill="#988358"/>
<path d="M65.6319 28.1797C64.6079 27.9043 63.6452 27.4366 62.7949 26.8016L64.047 23.9229C64.7868 24.472 65.6124 24.8943 66.49 25.1724C67.3999 25.4818 68.3539 25.6411 69.3147 25.644C70.3652 25.644 71.147 25.4848 71.6387 25.1602C71.8674 25.0335 72.058 24.8477 72.1907 24.622C72.3234 24.3963 72.3932 24.139 72.3929 23.877C72.396 23.6907 72.3576 23.506 72.2804 23.3365C72.2033 23.167 72.0894 23.0168 71.9471 22.897C71.61 22.6217 71.2233 22.4137 70.808 22.2845C70.3439 22.1283 69.7178 21.9538 68.93 21.767C67.9171 21.5294 66.9197 21.2297 65.9434 20.8697C65.1654 20.5698 64.4768 20.0754 63.9431 19.4334C63.3596 18.6806 63.0649 17.7428 63.1125 16.7905C63.1023 15.8666 63.3636 14.9602 63.8637 14.1844C64.4252 13.3631 65.2139 12.7244 66.1327 12.3469C67.3042 11.8584 68.5657 11.6246 69.8339 11.6609C70.8404 11.6605 71.8429 11.7881 72.8174 12.0406C73.7172 12.2556 74.577 12.6133 75.3643 13.1002L74.2252 16.0004C72.8943 15.177 71.3668 14.7285 69.8033 14.7019C68.7712 14.7019 68.0087 14.8754 67.5161 15.2225C67.2864 15.3678 67.0977 15.5695 66.9678 15.8086C66.8379 16.0477 66.7712 16.3161 66.774 16.5884C66.7705 16.8612 66.8507 17.1285 67.0036 17.3541C67.1565 17.5798 67.3748 17.7529 67.629 17.8501C68.4673 18.213 69.3415 18.486 70.237 18.6647C71.2509 18.9022 72.2493 19.2018 73.2266 19.562C73.9984 19.8539 74.6842 20.3364 75.2207 20.9646C75.7765 21.6077 76.0544 22.4795 76.0544 23.5799C76.0606 24.4983 75.7949 25.3978 75.291 26.1646C74.7203 26.9859 73.9249 27.624 73.0006 28.0021C71.8243 28.4884 70.5591 28.721 69.2873 28.685C68.0507 28.6974 66.819 28.5271 65.6319 28.1797Z" fill="#988358"/>
<path d="M89.0862 24.8913H81.6808L80.27 28.4285H76.4863L83.6108 11.9219H87.257L94.3876 28.4285H90.5001L89.0862 24.8913ZM87.9227 21.9912L85.3942 15.6703L82.8657 21.9912H87.9227Z" fill="#988358"/>
<path d="M107.061 24.8913H99.6553L98.2444 28.4285H94.4639L101.57 11.9219H105.216L112.347 28.4285H108.475L107.061 24.8913ZM105.903 21.9881L103.375 15.6703L100.843 21.9912L105.903 21.9881Z" fill="#988358"/>
<path d="M114.008 11.9188H121.254C122.841 11.8886 124.412 12.2404 125.835 12.9447C127.122 13.5918 128.198 14.595 128.935 15.8357C129.691 17.1527 130.074 18.6525 130.04 20.1721C130.074 21.6927 129.691 23.1934 128.935 24.5116C128.2 25.7493 127.128 26.7504 125.844 27.3964C124.421 28.1007 122.85 28.4525 121.264 28.4223H114.011L114.008 11.9188ZM121.071 25.2894C122.665 25.2894 123.938 24.8301 124.888 23.9113C125.839 22.9926 126.313 21.7462 126.311 20.1721C126.311 18.6021 125.837 17.3567 124.888 16.4359C123.939 15.5172 122.665 15.0547 121.071 15.0578H117.712V25.2894H121.071Z" fill="#988358"/>
<path d="M81.2891 40.9963V34.7795H83.9733C84.4654 34.7666 84.9546 34.8584 85.4086 35.049C85.7874 35.2127 86.1109 35.4829 86.34 35.8269C86.564 36.1885 86.6776 36.6079 86.6668 37.0335C86.6774 37.4552 86.5637 37.8706 86.34 38.2278C86.1117 38.5703 85.7877 38.8377 85.4086 38.9965C84.9539 39.1845 84.465 39.2753 83.9733 39.2629H82.083L82.7213 38.6321V40.9963H81.2891ZM82.7243 38.7944L82.083 38.1145H83.8909C84.2456 38.1423 84.5982 38.04 84.8834 37.8267C85.0924 37.6141 85.2096 37.3275 85.2096 37.0289C85.2096 36.7303 85.0924 36.4437 84.8834 36.2311C84.5966 36.0215 84.2446 35.9215 83.8909 35.9494H82.083L82.7213 35.2634L82.7243 38.7944ZM85.2315 40.9963L83.6802 38.727H85.2071L86.7767 40.984L85.2315 40.9963Z" fill="#FAF7F0"/>
<path d="M89.2269 39.8415H92.6013V40.9961H87.8008V34.7793H92.4853V35.9338H89.2269V39.8415ZM89.12 37.2844H92.1066V38.4022H89.1078L89.12 37.2844Z" fill="#FAF7F0"/>
<path d="M95.7802 41.1033C95.2979 41.1046 94.8178 41.0376 94.3541 40.9043C93.9605 40.7982 93.5891 40.6218 93.2578 40.3837L93.7434 39.2996C94.0326 39.5017 94.3508 39.6586 94.687 39.7651C95.042 39.8862 95.4144 39.9483 95.7894 39.9488C96.0215 39.9562 96.2533 39.9273 96.4765 39.8631C96.6249 39.8236 96.7585 39.7416 96.8613 39.6273C96.9429 39.5306 96.9873 39.4078 96.9865 39.2812C96.989 39.2043 96.9725 39.1279 96.9384 39.059C96.9043 38.99 96.8536 38.9307 96.791 38.8861C96.6355 38.7767 96.4618 38.6958 96.278 38.6473C96.0642 38.583 95.8291 38.5248 95.5726 38.4696C95.3161 38.4145 95.0595 38.3441 94.803 38.2614C94.5566 38.1878 94.3198 38.085 94.0976 37.9552C93.8867 37.8279 93.7097 37.6514 93.5815 37.4407C93.4385 37.1927 93.3686 36.9092 93.38 36.623C93.3773 36.2775 93.4784 35.9393 93.6701 35.6522C93.8844 35.3375 94.1859 35.0926 94.5373 34.9478C94.9993 34.7596 95.4956 34.6709 95.994 34.6875C96.3819 34.6873 96.7684 34.7335 97.1453 34.8253C97.4995 34.9073 97.8378 35.0469 98.1469 35.2388L97.7041 36.329C97.4312 36.1711 97.1399 36.0477 96.8368 35.9615C96.5594 35.8836 96.2729 35.8435 95.9848 35.8421C95.7539 35.8355 95.5236 35.8686 95.3038 35.9401C95.1554 35.9856 95.0229 36.0727 94.9221 36.1912C94.8451 36.2957 94.8043 36.4226 94.8061 36.5526C94.8051 36.6279 94.8223 36.7024 94.8564 36.7697C94.8904 36.8369 94.9402 36.8948 95.0015 36.9384C95.1564 37.0483 95.3304 37.1283 95.5146 37.1742C95.7283 37.2324 95.9635 37.2937 96.22 37.3519C96.4765 37.41 96.733 37.4805 96.9895 37.557C97.2366 37.6289 97.4736 37.7318 97.6949 37.8633C97.9045 37.9933 98.0819 38.1692 98.2141 38.3778C98.3535 38.6237 98.4222 38.9035 98.4126 39.1863C98.411 39.5305 98.3044 39.8661 98.1072 40.1479C97.8862 40.458 97.5839 40.7008 97.2338 40.8492C96.7727 41.0361 96.2772 41.1227 95.7802 41.1033Z" fill="#FAF7F0"/>
<path d="M99.3965 40.9961V34.7793H100.832V40.9961H99.3965Z" fill="#FAF7F0"/>
<path d="M102.3 40.996V34.7792H105.115C105.731 34.7661 106.341 34.8983 106.896 35.1651C107.391 35.4039 107.809 35.7774 108.102 36.2431C108.386 36.7432 108.535 37.3089 108.535 37.8845C108.535 38.4601 108.386 39.0258 108.102 39.526C107.81 39.9942 107.392 40.3701 106.896 40.6101C106.341 40.8769 105.731 41.009 105.115 40.996H102.3ZM103.735 39.8139H105.045C105.418 39.8242 105.788 39.7432 106.123 39.5781C106.419 39.4286 106.666 39.1954 106.832 38.9074C106.996 38.5917 107.082 38.2407 107.082 37.8845C107.082 37.5283 106.996 37.1774 106.832 36.8617C106.664 36.576 106.418 36.3443 106.123 36.1941C105.788 36.0304 105.418 35.9495 105.045 35.9582H103.735V39.8139Z" fill="#FAF7F0"/>
<path d="M111.041 39.8415H114.416V40.9961H109.615V34.7793H114.3V35.9338H111.041V39.8415ZM110.934 37.2844H113.918V38.4022H110.934V37.2844Z" fill="#FAF7F0"/>
<path d="M115.559 40.9961V34.7793H116.747L120.411 39.2535H119.828V34.7793H121.245V40.9961H120.066L116.401 36.5188H116.976V40.9961H115.559Z" fill="#FAF7F0"/>
<path d="M125.682 41.1034C125.228 41.107 124.776 41.0271 124.351 40.8676C123.956 40.7218 123.595 40.4963 123.29 40.205C122.985 39.9137 122.744 39.5628 122.58 39.1741C122.242 38.349 122.242 37.4237 122.58 36.5986C122.744 36.2137 122.985 35.8666 123.288 35.5788C123.595 35.2857 123.957 35.0576 124.354 34.9081C124.781 34.7479 125.235 34.6679 125.691 34.6723C126.191 34.6647 126.686 34.7595 127.148 34.951C127.574 35.1319 127.949 35.4147 128.241 35.7748L127.325 36.6261C127.13 36.3964 126.888 36.2107 126.617 36.081C126.35 35.9569 126.059 35.8942 125.765 35.8973C125.493 35.8953 125.223 35.9431 124.968 36.0382C124.732 36.1299 124.518 36.2697 124.339 36.4485C124.16 36.6287 124.02 36.8433 123.926 37.0794C123.735 37.6013 123.735 38.1744 123.926 38.6964C124.02 38.9324 124.16 39.147 124.339 39.3272C124.518 39.505 124.732 39.6436 124.968 39.7345C125.222 39.8311 125.493 39.8789 125.765 39.8754C126.059 39.8796 126.35 39.8178 126.617 39.6947C126.889 39.5624 127.131 39.3734 127.325 39.1404L128.241 39.9918C127.949 40.3519 127.574 40.6356 127.148 40.8186C126.684 41.0145 126.185 41.1114 125.682 41.1034Z" fill="#FAF7F0"/>
<path d="M130.688 40.9961V38.4542L131.015 39.327L128.288 34.7793H129.815L131.904 38.2705H131.027L133.128 34.7793H134.536L131.803 39.3393L132.124 38.4665V41.0083L130.688 40.9961Z" fill="#FAF7F0"/>
<path d="M139.589 41.1031C139.171 41.1123 138.755 41.0362 138.367 40.8795C138.039 40.7502 137.749 40.5394 137.524 40.267C137.322 40.0197 137.213 39.7081 137.219 39.3881C137.215 39.0985 137.286 38.8127 137.424 38.5582C137.587 38.2821 137.807 38.0449 138.071 37.863C138.424 37.6156 138.801 37.4033 139.195 37.2291C139.462 37.1094 139.722 36.9733 139.973 36.8218C140.128 36.7343 140.263 36.6178 140.374 36.4788C140.446 36.3823 140.486 36.2656 140.49 36.145C140.492 36.0751 140.479 36.0055 140.453 35.941C140.426 35.8765 140.385 35.8186 140.334 35.7713C140.205 35.67 140.043 35.6198 139.879 35.6305C139.699 35.6189 139.521 35.6758 139.381 35.7897C139.323 35.8409 139.278 35.9042 139.247 35.9751C139.216 36.046 139.202 36.1228 139.204 36.2001C139.204 36.2897 139.223 36.3783 139.259 36.4604C139.307 36.574 139.375 36.6777 139.46 36.7666C139.561 36.8769 139.705 37.0178 139.885 37.1893L143.159 40.2241L142.404 41.1031L138.801 37.7344C138.618 37.5736 138.451 37.3951 138.303 37.2015C138.189 37.0538 138.099 36.8896 138.034 36.7146C137.977 36.5546 137.948 36.3856 137.949 36.2154C137.944 35.9302 138.028 35.6506 138.19 35.4161C138.358 35.1767 138.591 34.9907 138.862 34.8802C139.185 34.7461 139.532 34.6814 139.882 34.6903C140.202 34.6816 140.52 34.74 140.816 34.8618C141.061 34.9675 141.272 35.1379 141.427 35.3548C141.581 35.5799 141.66 35.8478 141.653 36.1205C141.654 36.3718 141.587 36.6186 141.458 36.834C141.3 37.0794 141.092 37.2882 140.847 37.4465C140.507 37.6709 140.147 37.8636 139.772 38.0222C139.522 38.1309 139.282 38.2631 139.057 38.4173C138.908 38.52 138.78 38.6511 138.682 38.8032C138.604 38.9359 138.564 39.0873 138.566 39.2411C138.565 39.3856 138.613 39.5261 138.703 39.6392C138.803 39.765 138.937 39.8605 139.088 39.9148C139.276 39.9836 139.474 40.0168 139.674 40.0128C140.021 40.0155 140.363 39.9279 140.667 39.7586C140.981 39.5759 141.245 39.3169 141.433 39.0053C141.657 38.6284 141.808 38.213 141.879 37.7803L142.988 38.1264C142.878 38.6912 142.651 39.2265 142.322 39.6974C142.017 40.131 141.613 40.4849 141.143 40.7294C140.662 40.9776 140.129 41.1058 139.589 41.1031Z" fill="#FAF7F0"/>
<path d="M149.572 41.1034C149.117 41.107 148.664 41.0271 148.237 40.8676C147.843 40.7205 147.483 40.4945 147.178 40.2034C146.874 39.9122 146.632 39.5621 146.466 39.1741C146.132 38.3482 146.132 37.4244 146.466 36.5986C146.631 36.214 146.872 35.8671 147.175 35.5788C147.483 35.2856 147.846 35.0576 148.244 34.9081C148.671 34.7476 149.125 34.6676 149.581 34.6723C150.081 34.6647 150.576 34.7595 151.038 34.951C151.463 35.1326 151.839 35.4153 152.131 35.7748L151.215 36.6261C151.02 36.396 150.779 36.2102 150.506 36.081C150.241 35.9573 149.951 35.8945 149.657 35.8973C149.385 35.8951 149.115 35.9428 148.86 36.0382C148.625 36.1299 148.411 36.2697 148.231 36.4485C148.053 36.6287 147.913 36.8433 147.819 37.0794C147.624 37.6006 147.624 38.1752 147.819 38.6964C147.913 38.9324 148.053 39.147 148.231 39.3272C148.411 39.505 148.625 39.6436 148.86 39.7345C149.115 39.8313 149.385 39.8791 149.657 39.8754C149.95 39.8792 150.24 39.8175 150.506 39.6947C150.779 39.563 151.021 39.374 151.215 39.1404L152.131 39.9918C151.838 40.3512 151.463 40.6348 151.038 40.8186C150.574 41.0145 150.075 41.1114 149.572 41.1034Z" fill="#FAF7F0"/>
<path d="M153.088 40.9961V34.7793H154.523V40.9961H153.088Z" fill="#FAF7F0"/>
<path d="M157.276 40.9961V35.9522H155.291V34.7793H160.696V35.9522H158.711V40.9961H157.276Z" fill="#FAF7F0"/>
<path d="M161.482 40.9961V34.7793H162.918V40.9961H161.482Z" fill="#FAF7F0"/>
<path d="M163.973 40.9954V40.0767L167.808 35.4401L167.985 35.9669H164.043V34.7939H169.259V35.7127L165.432 40.3492L165.255 39.8255H169.393V40.9985L163.973 40.9954Z" fill="#FAF7F0"/>
<path d="M171.739 39.8415H175.098V40.9961H170.312V34.7793H175V35.9338H171.739V39.8415ZM171.635 37.2844H174.612V38.4022H171.629L171.635 37.2844Z" fill="#FAF7F0"/>
<path d="M176.259 40.9961V34.7793H177.444L181.108 39.2535H180.534V34.7793H181.942V40.9961H180.763L177.099 36.5188H177.667V40.9961H176.259Z" fill="#FAF7F0"/>
<path d="M185.451 41.1034C184.969 41.1047 184.489 41.0377 184.025 40.9044C183.631 40.7983 183.26 40.6219 182.929 40.3838L183.414 39.2996C183.704 39.5018 184.022 39.6587 184.358 39.7651C184.713 39.8863 185.085 39.9484 185.46 39.9489C185.692 39.9563 185.924 39.9274 186.147 39.8631C186.296 39.8236 186.429 39.7417 186.532 39.6273C186.614 39.5307 186.658 39.4079 186.657 39.2813C186.659 39.2045 186.642 39.1284 186.608 39.0596C186.574 38.9908 186.524 38.9313 186.462 38.8862C186.306 38.7767 186.133 38.6958 185.949 38.6473C185.735 38.583 185.5 38.5249 185.243 38.4697C184.987 38.4146 184.73 38.3442 184.474 38.2615C184.227 38.1879 183.991 38.0851 183.768 37.9552C183.558 37.828 183.381 37.6514 183.252 37.4407C183.109 37.1928 183.04 36.9093 183.051 36.6231C183.053 36.276 183.159 35.9376 183.356 35.6523C183.571 35.3376 183.872 35.0927 184.224 34.9479C184.685 34.7593 185.182 34.6706 185.68 34.6876C186.068 34.6874 186.455 34.7336 186.831 34.8254C187.186 34.9074 187.524 35.047 187.833 35.2388L187.39 36.3291C187.117 36.1706 186.824 36.0472 186.52 35.9616C186.244 35.8835 185.958 35.8433 185.671 35.8421C185.44 35.8356 185.21 35.8687 184.99 35.9401C184.842 35.9857 184.709 36.0728 184.608 36.1913C184.531 36.2958 184.49 36.4227 184.492 36.5526C184.49 36.6282 184.507 36.7029 184.541 36.7703C184.576 36.8376 184.626 36.8954 184.688 36.9385C184.843 37.0484 185.017 37.1284 185.201 37.1743C185.414 37.2325 185.65 37.2937 185.906 37.3519C186.163 37.4101 186.419 37.4806 186.676 37.5571C186.923 37.629 187.16 37.7319 187.381 37.8634C187.59 37.9927 187.767 38.1687 187.897 38.3779C188.039 38.6227 188.109 38.9031 188.099 39.1863C188.097 39.5306 187.991 39.8662 187.793 40.1479C187.572 40.4581 187.27 40.7008 186.92 40.8492C186.454 41.0383 185.953 41.125 185.451 41.1034Z" fill="#FAF7F0"/>
<path d="M190.493 40.9963H189.061V34.7796H190.493V40.9963ZM193.418 38.4484H190.389V37.2234H193.418V38.4484ZM193.311 34.7734H194.768V40.9902H193.333L193.311 34.7734Z" fill="#FAF7F0"/>
<path d="M196.221 40.9961V34.7793H197.656V40.9961H196.221Z" fill="#FAF7F0"/>
<path d="M199.128 40.9963V34.7795H201.809C202.301 34.7666 202.79 34.8584 203.244 35.049C203.618 35.2139 203.937 35.4841 204.161 35.8269C204.375 36.1917 204.487 36.6072 204.487 37.0304C204.487 37.4536 204.375 37.8692 204.161 38.234C203.937 38.5767 203.618 38.8469 203.244 39.0118C202.79 39.2024 202.301 39.2942 201.809 39.2813H199.925L200.56 38.6321V40.9963H199.128ZM200.56 38.7944L199.925 38.1145H201.73C202.084 38.142 202.436 38.0409 202.722 37.8297C202.833 37.7315 202.92 37.6093 202.976 37.4724C203.033 37.3355 203.058 37.1875 203.049 37.0396C203.058 36.8903 203.033 36.7409 202.977 36.6025C202.92 36.4642 202.833 36.3404 202.722 36.2403C202.436 36.0302 202.084 35.9302 201.73 35.9586H199.925L200.569 35.2664L200.56 38.7944Z" fill="#FAF7F0"/>
</svg>
